<svg width="24" height="25" viewBox="0 0 24 25" fill="none" xmlns="http://www.w3.org/2000/svg">
<path d="M20 3.5H4C3.46957 3.5 2.96086 3.71071 2.58579 4.08579C2.21071 4.46086 2 4.96957 2 5.5V9.5C2 10.0304 2.21071 10.5391 2.58579 10.9142C2.96086 11.2893 3.46957 11.5 4 11.5H20C20.5304 11.5 21.0391 11.2893 21.4142 10.9142C21.7893 10.5391 22 10.0304 22 9.5V5.5C22 4.96957 21.7893 4.46086 21.4142 4.08579C21.0391 3.71071 20.5304 3.5 20 3.5ZM15 7.5C15 8.05228 14.5523 8.5 14 8.5C13.4477 8.5 13 8.05228 13 7.5C13 6.94772 13.4477 6.5 14 6.5C14.5523 6.5 15 6.94772 15 7.5ZM19 7.5C19 8.05228 18.5523 8.5 18 8.5C17.4477 8.5 17 8.05228 17 7.5C17 6.94772 17.4477 6.5 18 6.5C18.5523 6.5 19 6.94772 19 7.5ZM20 13.5H4C3.46957 13.5 2.96086 13.7107 2.58579 14.0858C2.21071 14.4609 2 14.9696 2 15.5V19.5C2 20.0304 2.21071 20.5391 2.58579 20.9142C2.96086 21.2893 3.46957 21.5 4 21.5H20C20.5304 21.5 21.0391 21.2893 21.4142 20.9142C21.7893 20.5391 22 20.0304 22 19.5V15.5C22 14.9696 21.7893 14.4609 21.4142 14.0858C21.0391 13.7107 20.5304 13.5 20 13.5ZM15 17.5C15 18.0523 14.5523 18.5 14 18.5C13.4477 18.5 13 18.0523 13 17.5C13 16.9477 13.4477 16.5 14 16.5C14.5523 16.5 15 16.9477 15 17.5ZM19 17.5C19 18.0523 18.5523 18.5 18 18.5C17.4477 18.5 17 18.0523 17 17.5C17 16.9477 17.4477 16.5 18 16.5C18.5523 16.5 19 16.9477 19 17.5Z" fill="#F53838"/>
</svg>
