<svg width="510" height="415" viewBox="0 0 510 415" fill="none" xmlns="http://www.w3.org/2000/svg">
<path d="M381.532 293.405L341.915 270.1L310.796 316.506C328.976 331.71 359.518 342.766 375.301 339.39C407.689 332.461 473.14 240.309 482.221 233.294C513.138 209.41 523.188 200.346 484.502 218.905C447.618 236.598 467.154 218.905 458.117 218.905C447.261 219.664 450.859 229.319 454.888 236.238L381.532 293.405Z" fill="url(#paint0_linear_11_45)"/>
<path d="M156.218 258.905C167.415 251.103 211.657 237.051 231.087 231L251.644 233.25C264.596 236.472 292.377 241.965 305.156 247.163C317.935 252.361 341.127 268.938 362.762 282.762L357.633 300.583C353.058 316.481 340.934 329.098 325.23 334.301C321.189 360.086 317.704 402.005 318.279 415L167.929 414.883L161.046 351.08L130.085 354.408L103.933 334.301C136.68 277.469 142.222 268.656 156.218 258.905Z" fill="url(#paint1_linear_11_45)"/>
<path d="M112.793 404.058C65.282 398.035 96.1832 349.898 104.607 334C114.796 342.574 127.376 347.805 140.64 348.983L157.015 350.437L150.311 365.899L222.693 382.838L232.848 411C225.615 409.769 171.876 411.547 112.793 404.058Z" fill="url(#paint2_linear_11_45)"/>
<path d="M235.846 104C238.16 99.4723 244.798 93.1334 252.834 104H235.846Z" fill="#30235B"/>
<ellipse cx="239.843" cy="249.5" rx="25.9829" ry="18.5" fill="#CF0606"/>
<path d="M218.857 248.118L222.482 212H257.775L261.828 248.118C260.412 252.371 253.722 261 241.333 261C225.544 261 219.869 252.371 218.857 248.118Z" fill="url(#paint3_linear_11_45)"/>
<mask id="mask0_11_45" style="mask-type:alpha" maskUnits="userSpaceOnUse" x="218" y="212" width="44" height="49">
<path d="M218.857 248.117L222.481 212H257.768L261.828 248.19C260.412 252.444 253.7 261 241.314 261C225.528 261 219.869 252.371 218.857 248.117Z" fill="url(#paint4_linear_11_45)"/>
</mask>
<g mask="url(#mask0_11_45)">
<path opacity="0.1" d="M270.823 213.361C238.908 253.028 221.074 221.134 211.861 216.349L218.192 189.533L255.981 185L270.823 213.361Z" fill="black"/>
</g>
<path d="M239.115 227C200.945 227 194.381 172.075 206.174 146.952C232.71 114.44 265.879 133.405 279.147 146.952C282.341 167.887 285.864 227 239.115 227Z" fill="url(#paint5_linear_11_45)"/>
<path d="M280.227 185.122L272.594 179.355L273.821 175L282.545 180.887L280.227 185.122Z" fill="#111111"/>
<path d="M202.457 183.122L210.09 177.355L208.863 173L200.139 178.887L202.457 183.122Z" fill="#111111"/>
<path d="M209.294 150.13C236.316 167.686 266.273 157.445 277.874 150.13C275.431 157.812 278.891 172.577 280.927 179C298.51 156.168 292.761 143.839 287.69 140.528C286.844 129.149 276.47 100.698 241.642 102.046C206.815 103.395 200.057 128.025 201.043 137.157C187.856 155.026 195.702 172.498 202.062 179C209.294 165.001 209.129 155.18 209.294 150.13Z" fill="#30235B"/>
<g filter="url(#filter0_d_11_45)">
<path d="M244.24 119.642C203.859 118.291 194.864 144.842 193.657 160.261C193.56 161.496 192.55 162.468 191.312 162.468C189.99 162.468 188.937 161.366 189.054 160.05C190.817 140.28 201.359 105.735 244.24 108.117C287.537 110.522 296.007 144.984 294.679 164.195C294.608 165.223 293.739 166 292.709 166C291.584 166 290.682 165.088 290.637 163.965C290.001 148.025 279.402 120.661 244.24 119.642Z" fill="white"/>
</g>
<g filter="url(#filter1_d_11_45)">
<rect width="4.99681" height="20.9996" rx="2.4984" transform="matrix(0.984595 0.174848 -0.174312 0.98469 294.807 172)" fill="#24C28A"/>
</g>
<g filter="url(#filter2_d_11_45)">
<rect width="16.9891" height="43.9991" rx="8.49457" transform="matrix(0.984595 0.174848 -0.174312 0.98469 283.814 158)" fill="white"/>
</g>
<g filter="url(#filter3_d_11_45)">
<rect width="4.99681" height="20.9996" rx="2.4984" transform="matrix(-0.984595 0.174848 0.174312 0.98469 186.878 172)" fill="#24C28A"/>
</g>
<g filter="url(#filter4_d_11_45)">
<rect width="16.9891" height="43.9991" rx="8.49457" transform="matrix(-0.984595 0.174848 0.174312 0.98469 197.871 158)" fill="white"/>
</g>
<mask id="mask1_11_45" style="mask-type:alpha" maskUnits="userSpaceOnUse" x="182" y="159" width="23" height="44">
<rect width="16.9891" height="43.9991" rx="8.49457" transform="matrix(-0.98434 0.176283 0.172892 0.984941 197.871 158)" fill="white"/>
</mask>
<g mask="url(#mask1_11_45)">
<rect width="21.986" height="46.9991" transform="matrix(0.984204 -0.177036 0.173632 0.984811 190.875 158)" fill="#E8E8E8"/>
</g>
<mask id="mask2_11_45" style="mask-type:alpha" maskUnits="userSpaceOnUse" x="277" y="159" width="23" height="44">
<rect width="16.9891" height="43.9991" rx="8.49457" transform="matrix(0.98434 0.176283 -0.172892 0.984941 283.814 158)" fill="white"/>
</mask>
<g mask="url(#mask2_11_45)">
<rect width="21.986" height="46.9991" transform="matrix(-0.984204 -0.177036 -0.173632 0.984811 291.809 158)" fill="#E8E8E8"/>
</g>
<path opacity="0.5" d="M223.283 191C217.974 191 215.301 186.672 214.622 184.739C213.841 183.123 213.224 178.912 215.073 175.567C217.425 171.314 228.48 170.128 232.352 176.136C236.225 182.145 232.352 191 223.283 191Z" fill="#E6FCFF"/>
<path opacity="0.5" d="M258.401 191C263.71 191 266.383 186.672 267.063 184.739C267.844 183.123 268.461 178.912 266.611 175.567C264.259 171.314 253.204 170.128 249.332 176.136C245.46 182.145 249.332 191 258.401 191Z" fill="#E6FCFF"/>
<path fill-rule="evenodd" clip-rule="evenodd" d="M234.672 174.79C225.899 167.005 217.973 170.3 213.277 172.253C212.755 172.47 212.273 172.671 211.834 172.837L208.896 172.843C208.341 172.844 207.893 173.297 207.897 173.852L207.919 176.366C207.924 176.915 208.37 177.357 208.919 177.357L211.042 177.357C209.502 190.715 219.25 194.288 227.047 191.88C233.998 189.733 235.86 183.659 236.232 179.848C237.719 176.519 244.238 178.056 244.496 179.773C244.502 179.813 244.508 179.857 244.515 179.906L244.516 179.908C244.821 181.999 246.362 192.531 258.097 192.545C267.709 192.556 270.317 183.878 270.42 179.538L272.905 179.516C273.458 179.511 273.902 179.059 273.897 178.507L273.87 175.435C273.865 174.883 273.414 174.439 272.862 174.444L270.376 174.467C264.115 168.058 250.665 168.66 245.927 174.688C240.7 173.471 236.246 174.249 234.672 174.79ZM222.284 191C216.975 191 214.302 186.672 213.623 184.739C212.841 183.123 212.224 178.912 214.074 175.567C216.426 171.314 227.481 170.128 231.353 176.136C235.225 182.145 231.353 191 222.284 191ZM267.063 184.739C266.383 186.672 263.71 191 258.401 191C249.332 191 245.46 182.145 249.332 176.136C253.204 170.128 264.259 171.314 266.611 175.567C268.461 178.912 267.844 183.123 267.063 184.739Z" fill="#111111"/>
<path d="M164.892 409C164.892 408.448 165.34 408 165.892 408H320.039C321.005 408 321.789 408.784 321.789 409.75C321.789 412.649 319.438 415 316.539 415H170.892C167.579 415 164.892 412.314 164.892 409Z" fill="#B4B4B4"/>
<rect x="164.892" y="305" width="156.897" height="106" rx="2.94666" fill="url(#paint6_linear_11_45)"/>
<ellipse cx="242.841" cy="358" rx="10.9928" ry="11" fill="white"/>
<path fill-rule="evenodd" clip-rule="evenodd" d="M131.955 170.022C132.116 166.537 132.724 163.612 133.229 162C134.228 164.846 134.708 167.575 134.859 170.054C137.336 170.204 140.063 170.685 142.907 171.684C141.296 172.19 138.373 172.798 134.89 172.959C134.744 176.66 133.913 179.538 133.229 181C132.39 178.322 132.019 175.566 131.934 172.98C129.35 172.895 126.595 172.524 123.919 171.684C125.38 171 128.256 170.168 131.955 170.022Z" fill="url(#paint7_linear_11_45)"/>
<path fill-rule="evenodd" clip-rule="evenodd" d="M104.985 147.001C105.122 144.832 105.495 143.027 105.809 142C106.417 143.779 106.737 145.491 106.864 147.067C108.439 147.194 110.15 147.514 111.927 148.123C110.901 148.437 109.097 148.81 106.929 148.946C106.898 151.744 106.297 153.928 105.809 155C105.195 152.989 104.957 150.913 104.934 148.998C103.02 148.975 100.946 148.737 98.9359 148.123C100.007 147.634 102.19 147.032 104.985 147.001Z" fill="url(#paint8_linear_11_45)"/>
<path fill-rule="evenodd" clip-rule="evenodd" d="M62.001 132.022C62.1621 128.537 62.7701 125.612 63.2752 124C64.2738 126.846 64.7545 129.575 64.9046 132.054C67.3819 132.204 70.1092 132.685 72.953 133.684C71.3422 134.19 68.4194 134.798 64.9359 134.959C64.7902 138.66 63.9591 141.538 63.2752 143C62.4361 140.322 62.0651 137.566 61.9799 134.98C59.396 134.895 56.6415 134.524 53.9655 133.684C55.4261 133 58.3022 132.168 62.001 132.022Z" fill="url(#paint9_linear_11_45)"/>
<path fill-rule="evenodd" clip-rule="evenodd" d="M66.0735 209.026C66.3993 204.242 67.3512 200.252 68.1492 198C69.7046 201.919 70.506 205.688 70.8086 209.146C74.2645 209.449 78.0308 210.251 81.9471 211.807C79.6969 212.605 75.7096 213.558 70.9281 213.884C70.7193 219.467 69.3075 223.811 68.1492 226C66.7254 221.982 66.1103 217.845 65.9832 213.974C62.1156 213.847 57.9806 213.232 53.9655 211.807C56.1528 210.648 60.4944 209.235 66.0735 209.026Z" fill="url(#paint10_linear_11_45)"/>
<ellipse cx="95.9379" cy="181" rx="1.99868" ry="2" fill="#2F235A"/>
<ellipse cx="137.91" cy="128" rx="1.99868" ry="2" fill="#FE9076"/>
<ellipse cx="45.9708" cy="173" rx="1.99868" ry="2" fill="#FFA400"/>
<ellipse cx="127.917" cy="209" rx="1.99868" ry="2" fill="#23BB86"/>
<path d="M133.913 120C129.681 114.293 117.76 102.103 103.933 99" stroke="#FE9076" stroke-width="1.60277" stroke-linecap="round"/>
<path d="M37.6718 168.115C31.4544 164.665 15.5487 158.485 1.66502 161.361" stroke="#FFA400" stroke-width="1.60277" stroke-linecap="round"/>
<path d="M121.921 214C118.742 216.778 111.093 224.667 105.931 234" stroke="#23BB86" stroke-width="1.60277" stroke-linecap="round"/>
<path fill-rule="evenodd" clip-rule="evenodd" d="M348.73 170.022C348.569 166.537 347.961 163.612 347.456 162C346.458 164.846 345.977 167.575 345.827 170.054C343.349 170.204 340.622 170.685 337.778 171.684C339.389 172.19 342.312 172.798 345.795 172.959C345.941 176.66 346.772 179.538 347.456 181C348.295 178.322 348.666 175.566 348.751 172.98C351.335 172.895 354.09 172.524 356.766 171.684C355.305 171 352.429 170.168 348.73 170.022Z" fill="url(#paint11_linear_11_45)"/>
<path fill-rule="evenodd" clip-rule="evenodd" d="M375.7 147.001C375.563 144.832 375.19 143.027 374.877 142C374.268 143.779 373.949 145.491 373.821 147.067C372.247 147.194 370.535 147.514 368.758 148.123C369.784 148.437 371.588 148.81 373.756 148.946C373.787 151.744 374.388 153.928 374.877 155C375.491 152.989 375.729 150.913 375.752 148.998C377.665 148.975 379.74 148.737 381.749 148.123C380.679 147.634 378.496 147.032 375.7 147.001Z" fill="url(#paint12_linear_11_45)"/>
<path fill-rule="evenodd" clip-rule="evenodd" d="M418.684 132.022C418.523 128.537 417.915 125.612 417.41 124C416.411 126.846 415.931 129.575 415.781 132.054C413.303 132.204 410.576 132.685 407.732 133.684C409.343 134.19 412.266 134.798 415.749 134.959C415.895 138.66 416.726 141.538 417.41 143C418.249 140.322 418.62 137.566 418.705 134.98C421.289 134.895 424.044 134.524 426.72 133.684C425.259 133 422.383 132.168 418.684 132.022Z" fill="url(#paint13_linear_11_45)"/>
<path fill-rule="evenodd" clip-rule="evenodd" d="M414.612 209.026C414.286 204.242 413.334 200.252 412.536 198C410.981 201.919 410.179 205.688 409.877 209.146C406.421 209.449 402.654 210.251 398.738 211.807C400.988 212.605 404.976 213.558 409.757 213.884C409.966 219.467 411.378 223.811 412.536 226C413.96 221.982 414.575 217.845 414.702 213.974C418.57 213.847 422.705 213.232 426.72 211.807C424.532 210.648 420.191 209.235 414.612 209.026Z" fill="url(#paint14_linear_11_45)"/>
<ellipse cx="1.99868" cy="2" rx="1.99868" ry="2" transform="matrix(-1 0 0 1 386.746 179)" fill="#2F235A"/>
<ellipse cx="1.99868" cy="2" rx="1.99868" ry="2" transform="matrix(-1 0 0 1 344.774 126)" fill="#FE9076"/>
<ellipse cx="1.99868" cy="2" rx="1.99868" ry="2" transform="matrix(-1 0 0 1 436.713 171)" fill="#FFA400"/>
<ellipse cx="1.99868" cy="2" rx="1.99868" ry="2" transform="matrix(-1 0 0 1 354.767 207)" fill="#23BB86"/>
<path d="M346.772 120C351.004 114.293 362.925 102.103 376.753 99" stroke="#FE9076" stroke-width="1.60277" stroke-linecap="round"/>
<path d="M443.013 168.115C449.231 164.665 465.137 158.485 479.02 161.361" stroke="#FFA400" stroke-width="1.60277" stroke-linecap="round"/>
<path d="M358.765 214C361.944 216.778 369.592 224.667 374.754 234" stroke="#23BB86" stroke-width="1.60277" stroke-linecap="round"/>
<path d="M269.961 56.6905C267.933 53.4782 263.827 55.2281 263.827 58.7274C263.827 61.3551 269.456 65.4655 269.961 66C270.47 65.4655 275.819 61.3551 275.819 58.7274C275.819 55.2547 271.994 53.4782 269.961 56.6905Z" fill="#FFBCBC"/>
<path d="M283.489 60C283.489 67.5528 277.37 73.6752 269.823 73.6752C262.276 73.6752 256.157 67.5528 256.157 60C256.157 52.4472 262.276 46.3248 269.823 46.3248C277.37 46.3248 283.489 52.4472 283.489 60Z" stroke="#F7F7F7" stroke-width="0.649684"/>
<path d="M220.483 37.5368C218.623 34.6165 214.859 36.2074 214.859 39.3886C214.859 41.7774 220.019 45.5141 220.483 46C220.949 45.5141 225.852 41.7774 225.852 39.3886C225.852 36.2315 222.345 34.6165 220.483 37.5368Z" fill="#FFBCBC"/>
<path d="M232.56 40.5C232.56 47.245 227.096 52.7125 220.356 52.7125C213.616 52.7125 208.152 47.245 208.152 40.5C208.152 33.755 213.616 28.2875 220.356 28.2875C227.096 28.2875 232.56 33.755 232.56 40.5Z" stroke="#F7F7F7" stroke-width="0.574998"/>
<path d="M253.415 16.0758C252.231 14.0316 249.836 15.1452 249.836 17.372C249.836 19.0442 253.12 21.6599 253.415 22C253.712 21.6599 256.832 19.0442 256.832 17.372C256.832 15.1621 254.6 14.0316 253.415 16.0758Z" fill="#FFBCBC"/>
<path d="M261.632 18.5C261.632 23.0859 257.917 26.8034 253.334 26.8034C248.751 26.8034 245.036 23.0859 245.036 18.5C245.036 13.9141 248.751 10.1966 253.334 10.1966C257.917 10.1966 261.632 13.9141 261.632 18.5Z" stroke="#F7F7F7" stroke-width="0.393259"/>
<path d="M195.941 4.7684C194.927 3.30826 192.874 4.1037 192.874 5.69428C192.874 6.88869 195.688 8.75706 195.941 9C196.196 8.75706 198.87 6.88869 198.87 5.69428C198.87 4.11576 196.957 3.30826 195.941 4.7684Z" fill="#FFBCBC"/>
<path d="M202.706 7C202.706 10.7772 199.646 13.8391 195.872 13.8391C192.097 13.8391 189.037 10.7772 189.037 7C189.037 3.22276 192.097 0.16089 195.872 0.16089C199.646 0.16089 202.706 3.22276 202.706 7Z" stroke="#F7F7F7" stroke-width="0.321779"/>
<path d="M191.037 79.8442C188.67 76.3398 183.88 78.2489 183.88 82.0663C183.88 84.9328 190.447 89.4169 191.037 90C191.63 89.4169 197.871 84.9328 197.871 82.0663C197.871 78.2778 193.408 76.3398 191.037 79.8442Z" fill="#FFBCBC"/>
<path d="M205.514 84.5C205.514 92.8666 198.736 99.6487 190.376 99.6487C182.015 99.6487 175.237 92.8666 175.237 84.5C175.237 76.1334 182.015 69.3513 190.376 69.3513C198.736 69.3513 205.514 76.1334 205.514 84.5Z" stroke="#F7F7F7" stroke-width="0.702541"/>
<defs>
<filter id="filter0_d_11_45" x="155.046" y="78" width="173.761" height="126" filterUnits="userSpaceOnUse" color-interpolation-filters="sRGB">
<feFlood flood-opacity="0" result="BackgroundImageFix"/>
<feColorMatrix in="SourceAlpha" type="matrix" values="0 0 0 0 0 0 0 0 0 0 0 0 0 0 0 0 0 0 127 0" result="hardAlpha"/>
<feOffset dy="4"/>
<feGaussianBlur stdDeviation="17"/>
<feColorMatrix type="matrix" values="0 0 0 0 0.0386285 0 0 0 0 0.0648437 0 0 0 0 0.104167 0 0 0 0.13 0"/>
<feBlend mode="normal" in2="BackgroundImageFix" result="effect1_dropShadow_11_45"/>
<feBlend mode="normal" in="SourceGraphic" in2="effect1_dropShadow_11_45" result="shape"/>
</filter>
<filter id="filter1_d_11_45" x="257.543" y="142.398" width="75.7867" height="88.7559" filterUnits="userSpaceOnUse" color-interpolation-filters="sRGB">
<feFlood flood-opacity="0" result="BackgroundImageFix"/>
<feColorMatrix in="SourceAlpha" type="matrix" values="0 0 0 0 0 0 0 0 0 0 0 0 0 0 0 0 0 0 127 0" result="hardAlpha"/>
<feOffset dy="4"/>
<feGaussianBlur stdDeviation="17"/>
<feColorMatrix type="matrix" values="0 0 0 0 0.0386285 0 0 0 0 0.0648437 0 0 0 0 0.104167 0 0 0 0.13 0"/>
<feBlend mode="normal" in2="BackgroundImageFix" result="effect1_dropShadow_11_45"/>
<feBlend mode="normal" in="SourceGraphic" in2="effect1_dropShadow_11_45" result="shape"/>
</filter>
<filter id="filter2_d_11_45" x="243.494" y="129.353" width="89.6986" height="111.59" filterUnits="userSpaceOnUse" color-interpolation-filters="sRGB">
<feFlood flood-opacity="0" result="BackgroundImageFix"/>
<feColorMatrix in="SourceAlpha" type="matrix" values="0 0 0 0 0 0 0 0 0 0 0 0 0 0 0 0 0 0 127 0" result="hardAlpha"/>
<feOffset dy="4"/>
<feGaussianBlur stdDeviation="17"/>
<feColorMatrix type="matrix" values="0 0 0 0 0.0386285 0 0 0 0 0.0648437 0 0 0 0 0.104167 0 0 0 0.13 0"/>
<feBlend mode="normal" in2="BackgroundImageFix" result="effect1_dropShadow_11_45"/>
<feBlend mode="normal" in="SourceGraphic" in2="effect1_dropShadow_11_45" result="shape"/>
</filter>
<filter id="filter3_d_11_45" x="148.355" y="142.398" width="75.7867" height="88.7559" filterUnits="userSpaceOnUse" color-interpolation-filters="sRGB">
<feFlood flood-opacity="0" result="BackgroundImageFix"/>
<feColorMatrix in="SourceAlpha" type="matrix" values="0 0 0 0 0 0 0 0 0 0 0 0 0 0 0 0 0 0 127 0" result="hardAlpha"/>
<feOffset dy="4"/>
<feGaussianBlur stdDeviation="17"/>
<feColorMatrix type="matrix" values="0 0 0 0 0.0386285 0 0 0 0 0.0648437 0 0 0 0 0.104167 0 0 0 0.13 0"/>
<feBlend mode="normal" in2="BackgroundImageFix" result="effect1_dropShadow_11_45"/>
<feBlend mode="normal" in="SourceGraphic" in2="effect1_dropShadow_11_45" result="shape"/>
</filter>
<filter id="filter4_d_11_45" x="148.492" y="129.353" width="89.6986" height="111.59" filterUnits="userSpaceOnUse" color-interpolation-filters="sRGB">
<feFlood flood-opacity="0" result="BackgroundImageFix"/>
<feColorMatrix in="SourceAlpha" type="matrix" values="0 0 0 0 0 0 0 0 0 0 0 0 0 0 0 0 0 0 127 0" result="hardAlpha"/>
<feOffset dy="4"/>
<feGaussianBlur stdDeviation="17"/>
<feColorMatrix type="matrix" values="0 0 0 0 0.0386285 0 0 0 0 0.0648437 0 0 0 0 0.104167 0 0 0 0.13 0"/>
<feBlend mode="normal" in2="BackgroundImageFix" result="effect1_dropShadow_11_45"/>
<feBlend mode="normal" in="SourceGraphic" in2="effect1_dropShadow_11_45" result="shape"/>
</filter>
<linearGradient id="paint0_linear_11_45" x1="391.638" y1="158.143" x2="394.289" y2="333.912" gradientUnits="userSpaceOnUse">
<stop stop-color="#FFEFE0"/>
<stop offset="1" stop-color="#FFBE99"/>
</linearGradient>
<linearGradient id="paint1_linear_11_45" x1="243.147" y1="200.637" x2="230.676" y2="449.576" gradientUnits="userSpaceOnUse">
<stop stop-color="#FF9F81"/>
<stop offset="1" stop-color="#F53838"/>
</linearGradient>
<linearGradient id="paint2_linear_11_45" x1="227.38" y1="287.406" x2="109.143" y2="344.09" gradientUnits="userSpaceOnUse">
<stop offset="0.0677966" stop-color="#FFEFE0"/>
<stop offset="1" stop-color="#FFBE99"/>
</linearGradient>
<linearGradient id="paint3_linear_11_45" x1="239.126" y1="173.146" x2="241.205" y2="239.476" gradientUnits="userSpaceOnUse">
<stop stop-color="#FFEFE0"/>
<stop offset="1" stop-color="#FFBE99"/>
</linearGradient>
<linearGradient id="paint4_linear_11_45" x1="239.122" y1="173.147" x2="236.208" y2="248.711" gradientUnits="userSpaceOnUse">
<stop stop-color="#FFEFE0"/>
<stop offset="1" stop-color="#FFBE99"/>
</linearGradient>
<linearGradient id="paint5_linear_11_45" x1="242.207" y1="137.867" x2="242.207" y2="217.893" gradientUnits="userSpaceOnUse">
<stop stop-color="#FFEFE0"/>
<stop offset="1" stop-color="#FFBE99"/>
</linearGradient>
<linearGradient id="paint6_linear_11_45" x1="275.738" y1="225.447" x2="216.672" y2="435.336" gradientUnits="userSpaceOnUse">
<stop offset="0.0171777" stop-color="white"/>
<stop offset="1" stop-color="#D7D7D7"/>
</linearGradient>
<linearGradient id="paint7_linear_11_45" x1="133.413" y1="164.022" x2="133.413" y2="181.862" gradientUnits="userSpaceOnUse">
<stop stop-color="#FFE89E"/>
<stop offset="1" stop-color="#FFBF1A"/>
</linearGradient>
<linearGradient id="paint8_linear_11_45" x1="105.432" y1="143.384" x2="105.432" y2="155.59" gradientUnits="userSpaceOnUse">
<stop stop-color="#FFE89E"/>
<stop offset="1" stop-color="#FFBF1A"/>
</linearGradient>
<linearGradient id="paint9_linear_11_45" x1="63.4593" y1="126.022" x2="63.4593" y2="143.862" gradientUnits="userSpaceOnUse">
<stop stop-color="#FFE89E"/>
<stop offset="1" stop-color="#FFBF1A"/>
</linearGradient>
<linearGradient id="paint10_linear_11_45" x1="67.9563" y1="200.98" x2="67.9563" y2="227.27" gradientUnits="userSpaceOnUse">
<stop stop-color="#FFE89E"/>
<stop offset="1" stop-color="#FFBF1A"/>
</linearGradient>
<linearGradient id="paint11_linear_11_45" x1="347.272" y1="164.022" x2="347.272" y2="181.862" gradientUnits="userSpaceOnUse">
<stop stop-color="#FFE89E"/>
<stop offset="1" stop-color="#FFBF1A"/>
</linearGradient>
<linearGradient id="paint12_linear_11_45" x1="375.254" y1="143.384" x2="375.254" y2="155.59" gradientUnits="userSpaceOnUse">
<stop stop-color="#FFE89E"/>
<stop offset="1" stop-color="#FFBF1A"/>
</linearGradient>
<linearGradient id="paint13_linear_11_45" x1="417.226" y1="126.022" x2="417.226" y2="143.862" gradientUnits="userSpaceOnUse">
<stop stop-color="#FFE89E"/>
<stop offset="1" stop-color="#FFBF1A"/>
</linearGradient>
<linearGradient id="paint14_linear_11_45" x1="412.729" y1="200.98" x2="412.729" y2="227.27" gradientUnits="userSpaceOnUse">
<stop stop-color="#FFE89E"/>
<stop offset="1" stop-color="#FFBF1A"/>
</linearGradient>
</defs>
</svg>
