<svg width="24" height="24" viewBox="0 0 24 24" fill="none" xmlns="http://www.w3.org/2000/svg">
<path d="M10.126 17C9.998 17.0003 9.87116 16.9748 9.7528 16.9251C9.63445 16.8754 9.52692 16.8024 9.43637 16.7103L5.2983 12.5006C5.20506 12.4091 5.13067 12.2997 5.07947 12.1787C5.02826 12.0577 5.00126 11.9275 5.00004 11.7958C4.99883 11.6641 5.02342 11.5334 5.07238 11.4114C5.12135 11.2895 5.1937 11.1786 5.28523 11.0854C5.37676 10.9922 5.48562 10.9184 5.60547 10.8685C5.72532 10.8185 5.85375 10.7933 5.98328 10.7944C6.11281 10.7954 6.24083 10.8227 6.35988 10.8746C6.47893 10.9265 6.58662 11.002 6.67668 11.0967L10.1251 14.604L16.3341 8.2909C16.517 8.10473 16.7652 8.00009 17.024 8C17.2827 7.99991 17.5309 8.10437 17.714 8.29041C17.897 8.47644 17.9999 8.72881 18 8.992C18.0001 9.25519 17.8974 9.50763 17.7145 9.6938L10.8157 16.7103C10.7252 16.8024 10.6176 16.8754 10.4993 16.9251C10.3809 16.9748 10.2541 17.0003 10.126 17Z" fill="#2FAB73"/>
</svg>
