<svg width="149" height="37" viewBox="0 0 149 37" fill="none" xmlns="http://www.w3.org/2000/svg">
<path d="M47.04 25C46.9067 25 46.7933 24.9533 46.7 24.86C46.6067 24.7667 46.56 24.6533 46.56 24.52V11.48C46.56 11.3467 46.6067 11.2333 46.7 11.14C46.7933 11.0467 46.9067 11 47.04 11H48.9C49.0333 11 49.1467 11.0467 49.24 11.14C49.3333 11.2333 49.38 11.3467 49.38 11.48V22.62H55.72C55.8667 22.62 55.9867 22.6667 56.08 22.76C56.1733 22.8533 56.22 22.9733 56.22 23.12V24.52C56.22 24.6533 56.1733 24.7667 56.08 24.86C55.9867 24.9533 55.8667 25 55.72 25H47.04ZM60.9416 25.2C60.2482 25.2 59.6216 25.0667 59.0616 24.8C58.5016 24.52 58.0549 24.1533 57.7216 23.7C57.4016 23.2333 57.2416 22.7133 57.2416 22.14C57.2416 21.2067 57.6149 20.4667 58.3616 19.92C59.1216 19.36 60.1216 18.9867 61.3616 18.8L64.1016 18.4V17.98C64.1016 17.42 63.9616 16.9867 63.6816 16.68C63.4016 16.3733 62.9216 16.22 62.2416 16.22C61.7616 16.22 61.3682 16.32 61.0616 16.52C60.7682 16.7067 60.5482 16.96 60.4016 17.28C60.2949 17.4533 60.1416 17.54 59.9416 17.54H58.3616C58.2149 17.54 58.1016 17.5 58.0216 17.42C57.9549 17.34 57.9216 17.2333 57.9216 17.1C57.9349 16.8867 58.0216 16.6267 58.1816 16.32C58.3416 16.0133 58.5949 15.72 58.9416 15.44C59.2882 15.1467 59.7349 14.9 60.2816 14.7C60.8282 14.5 61.4882 14.4 62.2616 14.4C63.1016 14.4 63.8082 14.5067 64.3816 14.72C64.9682 14.92 65.4349 15.1933 65.7816 15.54C66.1282 15.8867 66.3816 16.2933 66.5416 16.76C66.7016 17.2267 66.7816 17.72 66.7816 18.24V24.52C66.7816 24.6533 66.7349 24.7667 66.6416 24.86C66.5482 24.9533 66.4349 25 66.3016 25H64.6816C64.5349 25 64.4149 24.9533 64.3216 24.86C64.2416 24.7667 64.2016 24.6533 64.2016 24.52V23.74C64.0282 23.9933 63.7949 24.2333 63.5016 24.46C63.2082 24.6733 62.8482 24.8533 62.4216 25C62.0082 25.1333 61.5149 25.2 60.9416 25.2ZM61.6216 23.3C62.0882 23.3 62.5082 23.2 62.8816 23C63.2682 22.8 63.5682 22.4933 63.7816 22.08C64.0082 21.6533 64.1216 21.12 64.1216 20.48V20.06L62.1216 20.38C61.3349 20.5 60.7482 20.6933 60.3616 20.96C59.9749 21.2267 59.7816 21.5533 59.7816 21.94C59.7816 22.2333 59.8682 22.4867 60.0416 22.7C60.2282 22.9 60.4616 23.0533 60.7416 23.16C61.0216 23.2533 61.3149 23.3 61.6216 23.3ZM73.2873 25.2C72.4873 25.2 71.8007 25.1067 71.2273 24.92C70.6673 24.7333 70.2073 24.5 69.8473 24.22C69.4873 23.94 69.2207 23.66 69.0473 23.38C68.874 23.1 68.7807 22.8667 68.7673 22.68C68.754 22.5333 68.794 22.42 68.8873 22.34C68.994 22.2467 69.1073 22.2 69.2273 22.2H70.8073C70.8607 22.2 70.9073 22.2067 70.9473 22.22C70.9873 22.2333 71.0407 22.2733 71.1073 22.34C71.2807 22.4867 71.4607 22.64 71.6473 22.8C71.8473 22.96 72.0807 23.1 72.3473 23.22C72.614 23.3267 72.9473 23.38 73.3473 23.38C73.8673 23.38 74.3007 23.28 74.6473 23.08C75.0073 22.8667 75.1873 22.5667 75.1873 22.18C75.1873 21.9 75.1073 21.6733 74.9473 21.5C74.8007 21.3267 74.5207 21.1733 74.1073 21.04C73.694 20.8933 73.1073 20.74 72.3473 20.58C71.6007 20.4067 70.9807 20.1867 70.4873 19.92C69.994 19.6533 69.6273 19.32 69.3873 18.92C69.1473 18.52 69.0273 18.0533 69.0273 17.52C69.0273 17 69.1807 16.5067 69.4873 16.04C69.8073 15.56 70.274 15.1667 70.8873 14.86C71.514 14.5533 72.2873 14.4 73.2073 14.4C73.9273 14.4 74.554 14.4933 75.0873 14.68C75.6207 14.8533 76.0607 15.0733 76.4073 15.34C76.7673 15.6067 77.0407 15.88 77.2273 16.16C77.414 16.4267 77.514 16.66 77.5273 16.86C77.5407 17.0067 77.5007 17.1267 77.4073 17.22C77.314 17.3 77.2073 17.34 77.0873 17.34H75.6073C75.5407 17.34 75.4807 17.3267 75.4273 17.3C75.374 17.2733 75.3207 17.24 75.2673 17.2C75.1207 17.0667 74.9607 16.9267 74.7873 16.78C74.614 16.6333 74.4007 16.5067 74.1473 16.4C73.9073 16.28 73.5873 16.22 73.1873 16.22C72.6807 16.22 72.294 16.3333 72.0273 16.56C71.7607 16.7733 71.6273 17.0467 71.6273 17.38C71.6273 17.6067 71.6873 17.8067 71.8073 17.98C71.9407 18.14 72.2007 18.2933 72.5873 18.44C72.974 18.5867 73.5607 18.74 74.3473 18.9C75.2407 19.06 75.9473 19.3 76.4673 19.62C77.0007 19.9267 77.374 20.2867 77.5873 20.7C77.814 21.1 77.9273 21.5467 77.9273 22.04C77.9273 22.64 77.7473 23.18 77.3873 23.66C77.0407 24.14 76.5207 24.52 75.8273 24.8C75.1473 25.0667 74.3007 25.2 73.2873 25.2ZM80.4919 25C80.3585 25 80.2452 24.9533 80.1519 24.86C80.0585 24.7667 80.0119 24.6533 80.0119 24.52V11.28C80.0119 11.1467 80.0585 11.0333 80.1519 10.94C80.2452 10.8467 80.3585 10.8 80.4919 10.8H82.1519C82.2852 10.8 82.3985 10.8467 82.4919 10.94C82.5852 11.0333 82.6319 11.1467 82.6319 11.28V24.52C82.6319 24.6533 82.5852 24.7667 82.4919 24.86C82.3985 24.9533 82.2852 25 82.1519 25H80.4919ZM89.7648 25.2C88.2848 25.2 87.1115 24.7733 86.2448 23.92C85.3782 23.0667 84.9115 21.8533 84.8448 20.28C84.8315 20.1467 84.8248 19.98 84.8248 19.78C84.8248 19.5667 84.8315 19.4 84.8448 19.28C84.8982 18.28 85.1248 17.4133 85.5248 16.68C85.9382 15.9467 86.5048 15.3867 87.2248 15C87.9448 14.6 88.7915 14.4 89.7648 14.4C90.8448 14.4 91.7515 14.6267 92.4848 15.08C93.2182 15.52 93.7715 16.14 94.1448 16.94C94.5182 17.7267 94.7048 18.64 94.7048 19.68V20.1C94.7048 20.2333 94.6582 20.3467 94.5648 20.44C94.4715 20.5333 94.3515 20.58 94.2048 20.58H87.5648C87.5648 20.58 87.5648 20.6 87.5648 20.64C87.5648 20.68 87.5648 20.7133 87.5648 20.74C87.5782 21.2067 87.6648 21.64 87.8248 22.04C87.9982 22.4267 88.2448 22.74 88.5648 22.98C88.8982 23.22 89.2915 23.34 89.7448 23.34C90.1182 23.34 90.4315 23.2867 90.6848 23.18C90.9382 23.06 91.1448 22.9267 91.3048 22.78C91.4648 22.6333 91.5782 22.5133 91.6448 22.42C91.7648 22.26 91.8582 22.1667 91.9248 22.14C92.0048 22.1 92.1182 22.08 92.2648 22.08H93.9848C94.1182 22.08 94.2248 22.12 94.3048 22.2C94.3982 22.28 94.4382 22.38 94.4248 22.5C94.4115 22.7133 94.2982 22.9733 94.0848 23.28C93.8848 23.5867 93.5915 23.8867 93.2048 24.18C92.8182 24.4733 92.3315 24.72 91.7448 24.92C91.1715 25.1067 90.5115 25.2 89.7648 25.2ZM87.5648 18.9H91.9848V18.84C91.9848 18.32 91.8982 17.8667 91.7248 17.48C91.5515 17.0933 91.2982 16.7867 90.9648 16.56C90.6315 16.3333 90.2315 16.22 89.7648 16.22C89.2982 16.22 88.8982 16.3333 88.5648 16.56C88.2315 16.7867 87.9782 17.0933 87.8048 17.48C87.6448 17.8667 87.5648 18.32 87.5648 18.84V18.9ZM100.768 25.2C99.9678 25.2 99.2811 25.1067 98.7078 24.92C98.1478 24.7333 97.6878 24.5 97.3278 24.22C96.9678 23.94 96.7011 23.66 96.5278 23.38C96.3545 23.1 96.2611 22.8667 96.2478 22.68C96.2345 22.5333 96.2745 22.42 96.3678 22.34C96.4745 22.2467 96.5878 22.2 96.7078 22.2H98.2878C98.3411 22.2 98.3878 22.2067 98.4278 22.22C98.4678 22.2333 98.5211 22.2733 98.5878 22.34C98.7611 22.4867 98.9411 22.64 99.1278 22.8C99.3278 22.96 99.5611 23.1 99.8278 23.22C100.094 23.3267 100.428 23.38 100.828 23.38C101.348 23.38 101.781 23.28 102.128 23.08C102.488 22.8667 102.668 22.5667 102.668 22.18C102.668 21.9 102.588 21.6733 102.428 21.5C102.281 21.3267 102.001 21.1733 101.588 21.04C101.174 20.8933 100.588 20.74 99.8278 20.58C99.0811 20.4067 98.4611 20.1867 97.9678 19.92C97.4745 19.6533 97.1078 19.32 96.8678 18.92C96.6278 18.52 96.5078 18.0533 96.5078 17.52C96.5078 17 96.6611 16.5067 96.9678 16.04C97.2878 15.56 97.7545 15.1667 98.3678 14.86C98.9945 14.5533 99.7678 14.4 100.688 14.4C101.408 14.4 102.034 14.4933 102.568 14.68C103.101 14.8533 103.541 15.0733 103.888 15.34C104.248 15.6067 104.521 15.88 104.708 16.16C104.894 16.4267 104.994 16.66 105.008 16.86C105.021 17.0067 104.981 17.1267 104.888 17.22C104.794 17.3 104.688 17.34 104.568 17.34H103.088C103.021 17.34 102.961 17.3267 102.908 17.3C102.854 17.2733 102.801 17.24 102.748 17.2C102.601 17.0667 102.441 16.9267 102.268 16.78C102.094 16.6333 101.881 16.5067 101.628 16.4C101.388 16.28 101.068 16.22 100.668 16.22C100.161 16.22 99.7745 16.3333 99.5078 16.56C99.2411 16.7733 99.1078 17.0467 99.1078 17.38C99.1078 17.6067 99.1678 17.8067 99.2878 17.98C99.4211 18.14 99.6811 18.2933 100.068 18.44C100.454 18.5867 101.041 18.74 101.828 18.9C102.721 19.06 103.428 19.3 103.948 19.62C104.481 19.9267 104.854 20.2867 105.068 20.7C105.294 21.1 105.408 21.5467 105.408 22.04C105.408 22.64 105.228 23.18 104.868 23.66C104.521 24.14 104.001 24.52 103.308 24.8C102.628 25.0667 101.781 25.2 100.768 25.2ZM111.552 25C111.326 25 111.146 24.94 111.012 24.82C110.879 24.7 110.786 24.56 110.732 24.4L106.652 11.6C106.626 11.5333 106.612 11.4733 106.612 11.42C106.612 11.3133 106.652 11.22 106.732 11.14C106.826 11.0467 106.932 11 107.052 11H109.532C109.746 11 109.912 11.06 110.032 11.18C110.152 11.3 110.226 11.4133 110.252 11.52L113.072 20.76L115.912 11.52C115.952 11.4133 116.026 11.3 116.132 11.18C116.252 11.06 116.419 11 116.632 11H119.112C119.232 11 119.332 11.0467 119.412 11.14C119.506 11.22 119.552 11.3133 119.552 11.42C119.552 11.4733 119.539 11.5333 119.512 11.6L115.432 24.4C115.379 24.56 115.286 24.7 115.152 24.82C115.032 24.94 114.852 25 114.612 25H111.552ZM121.92 25C121.773 25 121.653 24.9533 121.56 24.86C121.466 24.7667 121.42 24.6467 121.42 24.5V11.5C121.42 11.3533 121.466 11.2333 121.56 11.14C121.653 11.0467 121.773 11 121.92 11H127.52C128.626 11 129.586 11.1733 130.4 11.52C131.226 11.8533 131.866 12.36 132.32 13.04C132.786 13.72 133.02 14.58 133.02 15.62C133.02 16.6467 132.786 17.4933 132.32 18.16C131.866 18.8267 131.226 19.32 130.4 19.64C129.586 19.96 128.626 20.12 127.52 20.12H125.14V24.5C125.14 24.6467 125.086 24.7667 124.98 24.86C124.886 24.9533 124.766 25 124.62 25H121.92ZM125.08 17.36H127.42C127.993 17.36 128.446 17.2133 128.78 16.92C129.126 16.6267 129.3 16.18 129.3 15.58C129.3 15.0733 129.153 14.6467 128.86 14.3C128.566 13.9533 128.086 13.78 127.42 13.78H125.08V17.36ZM135.435 25C135.288 25 135.168 24.9533 135.075 24.86C134.982 24.7667 134.935 24.6467 134.935 24.5V11.5C134.935 11.3533 134.982 11.2333 135.075 11.14C135.168 11.0467 135.288 11 135.435 11H137.555C137.782 11 137.942 11.0533 138.035 11.16C138.142 11.2533 138.208 11.3267 138.235 11.38L143.115 19.08V11.5C143.115 11.3533 143.162 11.2333 143.255 11.14C143.348 11.0467 143.468 11 143.615 11H146.015C146.162 11 146.282 11.0467 146.375 11.14C146.468 11.2333 146.515 11.3533 146.515 11.5V24.5C146.515 24.6333 146.468 24.7533 146.375 24.86C146.282 24.9533 146.162 25 146.015 25H143.875C143.662 25 143.502 24.9467 143.395 24.84C143.302 24.7333 143.242 24.66 143.215 24.62L138.335 17.22V24.5C138.335 24.6467 138.288 24.7667 138.195 24.86C138.102 24.9533 137.982 25 137.835 25H135.435Z" fill="#0B132A"/>
<path d="M31.1473 14.0602L31.1255 14.0386C31.1238 14.0374 31.1224 14.0358 31.1215 14.0339L17.5006 0.5L3.87983 14.0335C3.87826 14.0351 3.8758 14.0382 3.8758 14.0382L3.85333 14.0599C1.77053 16.1409 0.447586 18.854 0.0948177 21.7679C-0.25795 24.6819 0.379698 27.6293 1.90639 30.1418C3.43309 32.6543 5.76122 34.5877 8.52069 35.6345C11.2802 36.6812 14.3126 36.7815 17.136 35.9191C17.3735 35.847 17.6275 35.847 17.8651 35.9191C20.6882 36.7812 23.7205 36.6809 26.4798 35.634C29.2391 34.587 31.567 32.6538 33.0936 30.1415C34.6202 27.6291 35.2579 24.6819 34.9053 21.7681C34.5526 18.8544 33.2299 16.1413 31.1473 14.0602ZM8.7232 22.9847C8.65689 23.0506 8.6043 23.1289 8.56844 23.2148C8.53257 23.3008 8.5141 23.3931 8.51412 23.4862C8.53835 25.8748 9.21776 28.2116 10.4792 30.2451C10.5079 30.2912 10.5211 30.3452 10.517 30.3992C10.513 30.4532 10.4918 30.5046 10.4566 30.546C10.4213 30.5874 10.3738 30.6166 10.3209 30.6295C10.2679 30.6425 10.2122 30.6385 10.1616 30.618C9.21332 30.2217 8.35182 29.6455 7.62531 28.9219C6.13646 27.4423 5.29946 25.4361 5.2981 23.3438C5.29675 21.2516 6.13117 19.2442 7.61812 17.7629L17.5006 7.94468L27.3826 17.7629C28.8698 19.2441 29.7045 21.2514 29.703 23.3438C29.7018 25.4361 28.8647 27.4423 27.3757 28.9219C26.6492 29.6455 25.7877 30.2217 24.8396 30.618C24.7889 30.6385 24.7332 30.6425 24.6802 30.6295C24.6273 30.6166 24.5798 30.5873 24.5445 30.546C24.5093 30.5046 24.488 30.4532 24.484 30.3991C24.4799 30.3451 24.4931 30.2911 24.5218 30.2449C25.7835 28.2116 26.4633 25.8748 26.4879 23.4862C26.4879 23.3931 26.4692 23.3008 26.4332 23.2147C26.3971 23.1285 26.3444 23.0504 26.2779 22.9845L21.6037 18.0584C21.5571 18.0198 21.4985 17.9986 21.4378 17.9986C21.3773 17.9986 21.3186 18.0198 21.2721 18.0584C21.2255 18.0969 21.1942 18.1505 21.1833 18.2097C21.1724 18.269 21.1828 18.33 21.2127 18.3824C23.0281 21.6465 21.467 26.335 18.8637 28.9219L18.85 28.9355C18.4907 29.2887 18.0056 29.4867 17.5002 29.4865C16.9948 29.4863 16.5098 29.288 16.1508 28.9347L16.1382 28.9219C13.5339 26.335 11.9736 21.647 13.7893 18.3831C13.8192 18.3307 13.8296 18.2697 13.8187 18.2104C13.8079 18.1512 13.7764 18.0976 13.7299 18.0591C13.6834 18.0205 13.6247 17.9993 13.5642 17.9993C13.5036 17.9993 13.4449 18.0205 13.3984 18.0591L8.7232 22.9847Z" fill="#F53838"/>
</svg>
