<svg width="24" height="25" viewBox="0 0 24 25" fill="none" xmlns="http://www.w3.org/2000/svg">
<path fill-rule="evenodd" clip-rule="evenodd" d="M12.5 11.7C13.4661 11.7 14.3927 11.3207 15.0759 10.6456C15.7591 9.97045 16.1429 9.05478 16.1429 8.1C16.1429 7.14522 15.7591 6.22955 15.0759 5.55442C14.3927 4.87928 13.4661 4.5 12.5 4.5C11.5339 4.5 10.6073 4.87928 9.92411 5.55442C9.24094 6.22955 8.85714 7.14522 8.85714 8.1C8.85714 9.05478 9.24094 9.97045 9.92411 10.6456C10.6073 11.3207 11.5339 11.7 12.5 11.7ZM7.30062 22.5C5.47774 22.5 3.94237 20.9666 4.64702 19.2855C5.07419 18.2663 5.70029 17.3403 6.48959 16.5603C7.27889 15.7803 8.21592 15.1616 9.24719 14.7394C10.2785 14.3173 11.3838 14.1 12.5 14.1C13.6162 14.1 14.7215 14.3173 15.7528 14.7394C16.7841 15.1616 17.7211 15.7803 18.5104 16.5603C19.2997 17.3403 19.9258 18.2663 20.353 19.2855C21.0576 20.9666 19.5223 22.5 17.6994 22.5H7.30062Z" fill="#F53838"/>
</svg>
