<svg width="146" height="166" viewBox="0 0 146 166" fill="none" xmlns="http://www.w3.org/2000/svg">
<path fill-rule="evenodd" clip-rule="evenodd" d="M52.6981 40.1077C53.3441 38.9396 54.0651 38.0453 54.573 37.5467C54.6641 38.739 54.5609 39.8197 54.3363 40.7811C55.2966 41.2823 56.2715 41.993 57.1818 42.9831C56.4192 43.0226 55.1543 42.9329 53.7427 42.5517C52.9885 44.2484 51.9061 45.3833 51.1949 45.8832C51.1485 44.4435 51.4372 43.0868 51.8792 41.8901C50.8091 41.4102 49.7418 40.7396 48.8136 39.8159C49.6166 39.6397 51.0613 39.6044 52.6981 40.1077Z" fill="url(#paint0_linear_848_82)"/>
<path fill-rule="evenodd" clip-rule="evenodd" d="M47.8208 25.8662C48.2764 24.8983 48.795 24.1406 49.1347 23.7378C49.1073 24.6769 48.9363 25.5232 48.6934 26.2601C49.2733 26.5615 49.8661 26.9528 50.439 27.4565C49.9804 27.4367 49.2308 27.3335 48.3709 27.0931C47.8836 28.1829 47.2732 28.9434 46.8826 29.2955C46.9401 28.4101 47.1533 27.5568 47.4352 26.7879C46.5677 26.4626 45.6579 25.9969 44.8602 25.345C45.4349 25.2905 46.5509 25.3755 47.8208 25.8662Z" fill="url(#paint1_linear_848_82)"/>
<path fill-rule="evenodd" clip-rule="evenodd" d="M33.8245 11.0945C34.4705 9.92642 35.1915 9.03208 35.6994 8.53353C35.7905 9.72585 35.6873 10.8065 35.4627 11.768C36.423 12.2691 37.3979 12.9798 38.3082 13.9699C37.5456 14.0094 36.2807 13.9197 34.8691 13.5385C34.1149 15.2352 33.0325 16.3701 32.3213 16.8701C32.2749 15.4303 32.5636 14.0736 33.0056 12.8769C31.9355 12.397 30.8682 11.7264 29.94 10.8027C30.743 10.6265 32.1877 10.5912 33.8245 11.0945Z" fill="url(#paint2_linear_848_82)"/>
<path fill-rule="evenodd" clip-rule="evenodd" d="M30.8528 43.3521C31.8501 41.1714 32.9829 39.4528 33.7123 38.547C33.6003 40.5961 33.1936 42.4476 32.6456 44.0601C34.1711 44.7481 35.7702 45.6959 37.3149 46.9848C36.1711 46.9092 34.1784 46.5846 31.9398 45.8557C30.8965 48.1815 29.6353 49.82 28.8327 50.5887C29.0008 48.686 29.4823 46.8438 30.0975 45.1791C28.4446 44.4995 26.7493 43.595 25.2275 42.41C26.3428 42.3386 28.421 42.5238 30.8528 43.3521Z" fill="url(#paint3_linear_848_82)"/>
<ellipse cx="0.994174" cy="0.999054" rx="0.994174" ry="0.999054" transform="matrix(0.935255 0.353975 -0.375562 0.926798 36.7428 27.9371)" fill="#2F235A"/>
<ellipse cx="0.994174" cy="0.999054" rx="0.994174" ry="0.999054" transform="matrix(0.935255 0.353975 -0.375562 0.926798 57.6031 17.9325)" fill="#FE9076"/>
<ellipse cx="0.994174" cy="0.999054" rx="0.994174" ry="0.999054" transform="matrix(0.935255 0.353975 -0.375562 0.926798 16.8759 21.9344)" fill="#FFA400"/>
<ellipse cx="0.994174" cy="0.999054" rx="0.994174" ry="0.999054" transform="matrix(0.935255 0.353975 -0.375562 0.926798 34.7561 55.9499)" fill="#23BB86"/>
<path d="M56.8296 15.1899C56.0122 11.9772 53.0148 4.64143 47.5651 1.00001" stroke="#FE9076" stroke-width="0.736823" stroke-linecap="round"/>
<path d="M15.4328 19.9184C13.3246 17.3033 7.4865 11.7855 0.999999 10.6348" stroke="#FFA400" stroke-width="0.736823" stroke-linecap="round"/>
<path d="M31.7761 57.9507C30.0127 58.6188 25.5665 60.7286 21.8889 63.8238" stroke="#23BB86" stroke-width="0.736823" stroke-linecap="round"/>
<path fill-rule="evenodd" clip-rule="evenodd" d="M93.3019 40.1077C92.6559 38.9396 91.9349 38.0453 91.427 37.5467C91.3359 38.739 91.4391 39.8197 91.6637 40.7811C90.7034 41.2823 89.7285 41.993 88.8182 42.9831C89.5808 43.0226 90.8457 42.9329 92.2573 42.5517C93.0115 44.2484 94.0939 45.3833 94.8051 45.8832C94.8515 44.4435 94.5628 43.0868 94.1208 41.8901C95.1909 41.4102 96.2582 40.7396 97.1864 39.8159C96.3834 39.6397 94.9387 39.6044 93.3019 40.1077Z" fill="url(#paint4_linear_848_82)"/>
<path fill-rule="evenodd" clip-rule="evenodd" d="M98.1792 25.8662C97.7236 24.8983 97.205 24.1406 96.8653 23.7378C96.8927 24.6769 97.0637 25.5232 97.3066 26.2601C96.7267 26.5615 96.1339 26.9528 95.561 27.4565C96.0196 27.4367 96.7692 27.3335 97.6291 27.0931C98.1164 28.1829 98.7268 28.9434 99.1174 29.2955C99.0599 28.4101 98.8467 27.5568 98.5648 26.7879C99.4323 26.4626 100.342 25.9969 101.14 25.345C100.565 25.2905 99.4491 25.3755 98.1792 25.8662Z" fill="url(#paint5_linear_848_82)"/>
<path fill-rule="evenodd" clip-rule="evenodd" d="M112.176 11.0945C111.53 9.92639 110.808 9.03205 110.301 8.5335C110.209 9.72582 110.313 10.8065 110.537 11.7679C109.577 12.2691 108.602 12.9798 107.692 13.9699C108.454 14.0094 109.719 13.9197 111.131 13.5385C111.885 15.2352 112.967 16.37 113.679 16.87C113.725 15.4303 113.436 14.0736 112.994 12.8769C114.064 12.397 115.132 11.7264 116.06 10.8027C115.257 10.6265 113.812 10.5912 112.176 11.0945Z" fill="url(#paint6_linear_848_82)"/>
<path fill-rule="evenodd" clip-rule="evenodd" d="M115.147 43.3521C114.15 41.1714 113.017 39.4528 112.288 38.547C112.4 40.5961 112.806 42.4476 113.354 44.0601C111.829 44.7481 110.23 45.6959 108.685 46.9848C109.829 46.9092 111.822 46.5846 114.06 45.8557C115.103 48.1815 116.365 49.82 117.167 50.5887C116.999 48.686 116.518 46.8438 115.902 45.1791C117.555 44.4995 119.251 43.595 120.773 42.41C119.657 42.3386 117.579 42.5238 115.147 43.3521Z" fill="url(#paint7_linear_848_82)"/>
<ellipse cx="0.994174" cy="0.999054" rx="0.994174" ry="0.999054" transform="matrix(-0.935255 0.353975 0.375562 0.926797 109.257 27.9371)" fill="#2F235A"/>
<ellipse cx="0.994174" cy="0.999054" rx="0.994174" ry="0.999054" transform="matrix(-0.935255 0.353975 0.375562 0.926797 88.3969 17.9325)" fill="#FE9076"/>
<ellipse cx="0.994174" cy="0.999054" rx="0.994174" ry="0.999054" transform="matrix(-0.935255 0.353975 0.375562 0.926797 129.124 21.9344)" fill="#FFA400"/>
<ellipse cx="0.994174" cy="0.999054" rx="0.994174" ry="0.999054" transform="matrix(-0.935255 0.353975 0.375562 0.926797 111.244 55.9499)" fill="#23BB86"/>
<path d="M89.1704 15.1899C89.9879 11.9772 92.9852 4.64143 98.4349 1.00001" stroke="#FE9076" stroke-width="0.736823" stroke-linecap="round"/>
<path d="M130.567 19.9184C132.675 17.3033 138.514 11.7855 145 10.6348" stroke="#FFA400" stroke-width="0.736823" stroke-linecap="round"/>
<path d="M114.224 57.9507C115.987 58.6188 120.433 60.7286 124.111 63.8238" stroke="#23BB86" stroke-width="0.736823" stroke-linecap="round"/>
<rect x="26.8093" y="103.972" width="89.4013" height="62.0283" fill="url(#paint8_linear_848_82)"/>
<mask id="mask0_848_82" style="mask-type:alpha" maskUnits="userSpaceOnUse" x="26" y="103" width="91" height="63">
<rect x="26.8093" y="103.972" width="89.4013" height="62.0283" fill="#C4C4C4"/>
</mask>
<g mask="url(#mask0_848_82)">
<path d="M30.6105 101.971L91.3769 101.971L77.6423 125.982L16.8759 125.982L30.6105 101.971Z" fill="black" fill-opacity="0.07"/>
<rect x="87.4035" y="103.972" width="89.4013" height="62.0283" fill="url(#paint9_linear_848_82)"/>
</g>
<path d="M26.629 103.972L87.4035 103.972L75.6637 123.981L14.8892 123.981L26.629 103.972Z" fill="url(#paint10_linear_848_82)"/>
<mask id="mask1_848_82" style="mask-type:alpha" maskUnits="userSpaceOnUse" x="87" y="103" width="30" height="63">
<rect x="87.4035" y="103.972" width="28.8071" height="62.0283" fill="#C4C4C4"/>
</mask>
<g mask="url(#mask1_848_82)">
<path d="M112.49 103.972L83.4301 103.972L97.0846 126.982L126.144 126.982L112.49 103.972Z" fill="black" fill-opacity="0.07"/>
</g>
<path d="M116.279 103.972L87.4035 103.972L99.2557 123.981L128.131 123.981L116.279 103.972Z" fill="url(#paint11_linear_848_82)"/>
<ellipse cx="57.1064" cy="88.4647" rx="8.44345" ry="8.50388" fill="url(#paint12_linear_848_82)"/>
<ellipse cx="89.3902" cy="66.9548" rx="7.94678" ry="8.00365" fill="url(#paint13_linear_848_82)"/>
<ellipse cx="58.0998" cy="56.4501" rx="6.45676" ry="6.50296" fill="url(#paint14_linear_848_82)"/>
<ellipse cx="77.47" cy="41.9435" rx="5.96008" ry="6.00274" fill="url(#paint15_linear_848_82)"/>
<ellipse cx="65.0532" cy="25.436" rx="4.47006" ry="4.50205" fill="url(#paint16_linear_848_82)"/>
<ellipse cx="73" cy="65.4542" rx="1.49002" ry="1.50068" fill="#FFA800" fill-opacity="0.23"/>
<ellipse cx="100.814" cy="51.4478" rx="1.49002" ry="1.50068" fill="#FFA800" fill-opacity="0.23"/>
<ellipse cx="101.807" cy="24.4355" rx="1.49002" ry="1.50068" fill="#FFA800" fill-opacity="0.23"/>
<ellipse cx="46.1796" cy="27.4368" rx="1.49002" ry="1.50068" fill="#FFA800" fill-opacity="0.23"/>
<ellipse cx="79.9534" cy="91.466" rx="1.49002" ry="1.50068" fill="#FFA800" fill-opacity="0.23"/>
<ellipse cx="39.2262" cy="62.4528" rx="1.49002" ry="1.50068" fill="#FFA800" fill-opacity="0.23"/>
<path d="M116.531 103.972H26.6986L12.9025 18.933H133.098L116.531 103.972Z" fill="url(#paint17_linear_848_82)"/>
<defs>
<linearGradient id="paint0_linear_848_82" x1="53.4222" y1="37.2817" x2="50.4335" y2="45.1785" gradientUnits="userSpaceOnUse">
<stop stop-color="#FFE89E"/>
<stop offset="1" stop-color="#FFBF1A"/>
</linearGradient>
<linearGradient id="paint1_linear_848_82" x1="49.0472" y1="25.8156" x2="47.0547" y2="31.0801" gradientUnits="userSpaceOnUse">
<stop stop-color="#FFE89E"/>
<stop offset="1" stop-color="#FFBF1A"/>
</linearGradient>
<linearGradient id="paint2_linear_848_82" x1="34.5486" y1="8.26849" x2="31.5599" y2="16.1653" gradientUnits="userSpaceOnUse">
<stop stop-color="#FFE89E"/>
<stop offset="1" stop-color="#FFBF1A"/>
</linearGradient>
<linearGradient id="paint3_linear_848_82" x1="32.9624" y1="40.3172" x2="28.6453" y2="51.7237" gradientUnits="userSpaceOnUse">
<stop stop-color="#FFE89E"/>
<stop offset="1" stop-color="#FFBF1A"/>
</linearGradient>
<linearGradient id="paint4_linear_848_82" x1="92.5778" y1="37.2817" x2="95.5665" y2="45.1785" gradientUnits="userSpaceOnUse">
<stop stop-color="#FFE89E"/>
<stop offset="1" stop-color="#FFBF1A"/>
</linearGradient>
<linearGradient id="paint5_linear_848_82" x1="96.9528" y1="25.8156" x2="98.9453" y2="31.0801" gradientUnits="userSpaceOnUse">
<stop stop-color="#FFE89E"/>
<stop offset="1" stop-color="#FFBF1A"/>
</linearGradient>
<linearGradient id="paint6_linear_848_82" x1="111.451" y1="8.26846" x2="114.44" y2="16.1652" gradientUnits="userSpaceOnUse">
<stop stop-color="#FFE89E"/>
<stop offset="1" stop-color="#FFBF1A"/>
</linearGradient>
<linearGradient id="paint7_linear_848_82" x1="113.038" y1="40.3172" x2="117.355" y2="51.7237" gradientUnits="userSpaceOnUse">
<stop stop-color="#FFE89E"/>
<stop offset="1" stop-color="#FFBF1A"/>
</linearGradient>
<linearGradient id="paint8_linear_848_82" x1="56.6735" y1="92.4878" x2="20.8092" y2="190.904" gradientUnits="userSpaceOnUse">
<stop stop-color="#FFD481"/>
<stop offset="1" stop-color="#FA620C"/>
</linearGradient>
<linearGradient id="paint9_linear_848_82" x1="41.8602" y1="100.037" x2="150.423" y2="215.624" gradientUnits="userSpaceOnUse">
<stop stop-color="#FFD481"/>
<stop offset="0.83311" stop-color="#FA620C"/>
</linearGradient>
<linearGradient id="paint10_linear_848_82" x1="27.8797" y1="96.8204" x2="24.8674" y2="139.445" gradientUnits="userSpaceOnUse">
<stop stop-color="#FFD481"/>
<stop offset="1" stop-color="#FA620C"/>
</linearGradient>
<linearGradient id="paint11_linear_848_82" x1="120.835" y1="96.8204" x2="126.141" y2="138.99" gradientUnits="userSpaceOnUse">
<stop stop-color="#FFD481"/>
<stop offset="1" stop-color="#FA620C"/>
</linearGradient>
<linearGradient id="paint12_linear_848_82" x1="57.7458" y1="77.1542" x2="56.1168" y2="100.107" gradientUnits="userSpaceOnUse">
<stop stop-color="#FF9F81"/>
<stop offset="1" stop-color="#F53838"/>
</linearGradient>
<linearGradient id="paint13_linear_848_82" x1="89.992" y1="56.3097" x2="88.4587" y2="77.912" gradientUnits="userSpaceOnUse">
<stop stop-color="#FF9F81"/>
<stop offset="1" stop-color="#F53838"/>
</linearGradient>
<linearGradient id="paint14_linear_848_82" x1="58.5887" y1="47.8009" x2="57.343" y2="65.3527" gradientUnits="userSpaceOnUse">
<stop stop-color="#FF9F81"/>
<stop offset="1" stop-color="#F53838"/>
</linearGradient>
<linearGradient id="paint15_linear_848_82" x1="77.9213" y1="33.9596" x2="76.7714" y2="50.1613" gradientUnits="userSpaceOnUse">
<stop stop-color="#FF9F81"/>
<stop offset="1" stop-color="#F53838"/>
</linearGradient>
<linearGradient id="paint16_linear_848_82" x1="65.3917" y1="19.4481" x2="64.5293" y2="31.5993" gradientUnits="userSpaceOnUse">
<stop stop-color="#FF9F81"/>
<stop offset="1" stop-color="#F53838"/>
</linearGradient>
<linearGradient id="paint17_linear_848_82" x1="72.0123" y1="18.933" x2="72.0123" y2="199.6" gradientUnits="userSpaceOnUse">
<stop stop-color="white" stop-opacity="0"/>
<stop offset="1" stop-color="#FE9277"/>
</linearGradient>
</defs>
</svg>
